<svg width="24" height="25" viewBox="0 0 24 25" fill="none" xmlns="http://www.w3.org/2000/svg">
    <path d="M19.33 5.69416L13.06 2.31416C12.4 1.95416 11.6 1.95416 10.94 2.31416L4.66999 5.69416C4.20999 5.94416 3.92999 6.42416 3.92999 6.97416C3.92999 7.51416 4.20999 8.00416 4.66999 8.25416L10.94 11.6342C11.27 11.8142 11.64 11.9042 12 11.9042C12.36 11.9042 12.73 11.8142 13.06 11.6342L19.33 8.25416C19.79 8.00416 20.07 7.52416 20.07 6.97416C20.07 6.42416 19.79 5.94416 19.33 5.69416Z" fill="#5570F1"/>
    <path d="M9.91 12.8042L4.07 9.88416C3.62 9.66416 3.1 9.68416 2.68 9.94416C2.25 10.2142 2 10.6642 2 11.1642V16.6742C2 17.6242 2.53 18.4842 3.38 18.9142L9.21 21.8342C9.41 21.9342 9.63 21.9842 9.85 21.9842C10.11 21.9842 10.37 21.9142 10.6 21.7742C11.03 21.5142 11.28 21.0542 11.28 20.5542V15.0442C11.29 14.0842 10.76 13.2242 9.91 12.8042Z" fill="#5570F1"/>
    <path d="M21.32 9.94416C20.89 9.68416 20.37 9.65416 19.93 9.88416L14.1 12.8042C13.25 13.2342 12.72 14.0842 12.72 15.0442V20.5542C12.72 21.0542 12.97 21.5142 13.4 21.7742C13.63 21.9142 13.89 21.9842 14.15 21.9842C14.37 21.9842 14.59 21.9342 14.79 21.8342L20.62 18.9142C21.47 18.4842 22 17.6342 22 16.6742V11.1642C22 10.6642 21.75 10.2142 21.32 9.94416Z" fill="#5570F1"/>
</svg>
