<svg width="24" height="25" viewBox="0 0 24 25" fill="none" xmlns="http://www.w3.org/2000/svg">
    <path d="M20.1 9.23416C18.29 9.23416 17.55 7.95416 18.45 6.38416C18.97 5.47416 18.66 4.31416 17.75 3.79416L16.02 2.80416C15.23 2.33416 14.21 2.61416 13.74 3.40416L13.63 3.59416C12.73 5.16416 11.25 5.16416 10.34 3.59416L10.23 3.40416C9.78 2.61416 8.76 2.33416 7.97 2.80416L6.24 3.79416C5.33 4.31416 5.02 5.48416 5.54 6.39416C6.45 7.95416 5.71 9.23416 3.9 9.23416C2.86 9.23416 2 10.0842 2 11.1342V12.8942C2 13.9342 2.85 14.7942 3.9 14.7942C5.71 14.7942 6.45 16.0742 5.54 17.6442C5.02 18.5542 5.33 19.7142 6.24 20.2342L7.97 21.2242C8.76 21.6942 9.78 21.4142 10.25 20.6242L10.36 20.4342C11.26 18.8642 12.74 18.8642 13.65 20.4342L13.76 20.6242C14.23 21.4142 15.25 21.6942 16.04 21.2242L17.77 20.2342C18.68 19.7142 18.99 18.5442 18.47 17.6442C17.56 16.0742 18.3 14.7942 20.11 14.7942C21.15 14.7942 22.01 13.9442 22.01 12.8942V11.1342C22 10.0942 21.15 9.23416 20.1 9.23416ZM12 15.2642C10.21 15.2642 8.75 13.8042 8.75 12.0142C8.75 10.2242 10.21 8.76416 12 8.76416C13.79 8.76416 15.25 10.2242 15.25 12.0142C15.25 13.8042 13.79 15.2642 12 15.2642Z" fill="#5570F1"/>
</svg>
