<svg width="24" height="25" viewBox="0 0 24 25" fill="none" xmlns="http://www.w3.org/2000/svg">
    <path d="M11.25 8.09416V10.9542L10.24 10.6042C9.72998 10.4242 9.41998 10.2542 9.41998 9.38416C9.41998 8.67416 9.94998 8.09416 10.6 8.09416H11.25Z" fill="#5570F1"/>
    <path d="M14.58 14.6442C14.58 15.3542 14.05 15.9342 13.4 15.9342H12.75V13.0742L13.76 13.4242C14.27 13.6042 14.58 13.7742 14.58 14.6442Z" fill="#5570F1"/>
    <path d="M16.19 2.01416H7.81C4.17 2.01416 2 4.18416 2 7.82416V16.2042C2 19.8442 4.17 22.0142 7.81 22.0142H16.19C19.83 22.0142 22 19.8442 22 16.2042V7.82416C22 4.18416 19.83 2.01416 16.19 2.01416ZM14.26 12.0142C15.04 12.2842 16.08 12.8542 16.08 14.6442C16.08 16.1842 14.88 17.4342 13.4 17.4342H12.75V18.0142C12.75 18.4242 12.41 18.7642 12 18.7642C11.59 18.7642 11.25 18.4242 11.25 18.0142V17.4342H10.89C9.25 17.4342 7.92 16.0442 7.92 14.3442C7.92 13.9342 8.25 13.5942 8.67 13.5942C9.08 13.5942 9.42 13.9342 9.42 14.3442C9.42 15.2242 10.08 15.9342 10.89 15.9342H11.25V12.5442L9.74 12.0142C8.96 11.7442 7.92 11.1742 7.92 9.38416C7.92 7.84416 9.12 6.59416 10.6 6.59416H11.25V6.01416C11.25 5.60416 11.59 5.26416 12 5.26416C12.41 5.26416 12.75 5.60416 12.75 6.01416V6.59416H13.11C14.75 6.59416 16.08 7.98416 16.08 9.68416C16.08 10.0942 15.75 10.4342 15.33 10.4342C14.92 10.4342 14.58 10.0942 14.58 9.68416C14.58 8.80416 13.92 8.09416 13.11 8.09416H12.75V11.4842L14.26 12.0142Z" fill="#5570F1"/>
</svg>
