<svg width="24" height="25" viewBox="0 0 24 25" fill="none" xmlns="http://www.w3.org/2000/svg">
<path d="M7.2 2.01416H9.8C13 2.01416 15 4.01416 15 7.21416V11.2642H8.75C8.34 11.2642 8 11.6042 8 12.0142C8 12.4242 8.34 12.7642 8.75 12.7642H15V16.8142C15 20.0142 13 22.0142 9.8 22.0142H7.21C4.01 22.0142 2.01 20.0142 2.01 16.8142V7.21416C2 4.01416 4 2.01416 7.2 2.01416Z" fill="#EA4D4D"/>
<path d="M19.44 11.2642L17.37 9.19416C17.22 9.04416 17.15 8.85416 17.15 8.66416C17.15 8.47416 17.22 8.27416 17.37 8.13416C17.66 7.84416 18.14 7.84416 18.43 8.13416L21.78 11.4842C22.07 11.7742 22.07 12.2542 21.78 12.5442L18.43 15.8942C18.14 16.1842 17.66 16.1842 17.37 15.8942C17.08 15.6042 17.08 15.1242 17.37 14.8342L19.44 12.7642H15V11.2642H19.44Z" fill="#EA4D4D"/>
</svg>
