<svg width="24" height="25" viewBox="0 0 24 25" fill="none" xmlns="http://www.w3.org/2000/svg">
<path d="M16 2.01416H8C4 2.01416 2 4.01416 2 8.01416V21.0142C2 21.5642 2.45 22.0142 3 22.0142H16C20 22.0142 22 20.0142 22 16.0142V8.01416C22 4.01416 20 2.01416 16 2.01416ZM11.11 16.6742C10.86 16.9242 10.4 17.1542 10.06 17.2042L7.98 17.4942C7.9 17.5042 7.82 17.5142 7.75 17.5142C7.4 17.5142 7.08 17.3942 6.85 17.1642C6.57 16.8842 6.45 16.4742 6.52 16.0342L6.81 13.9542C6.86 13.6142 7.09 13.1442 7.34 12.9042L11.11 9.13416C11.17 9.31416 11.25 9.49416 11.34 9.69416C11.43 9.87416 11.52 10.0542 11.62 10.2242C11.7 10.3642 11.79 10.5042 11.87 10.6042C11.97 10.7542 12.07 10.8842 12.14 10.9542C12.18 11.0142 12.22 11.0542 12.23 11.0742C12.45 11.3242 12.68 11.5642 12.9 11.7442C12.96 11.8042 13 11.8342 13.01 11.8442C13.14 11.9442 13.26 12.0542 13.38 12.1242C13.51 12.2242 13.65 12.3142 13.79 12.3942C13.96 12.4942 14.14 12.5942 14.33 12.6842C14.52 12.7742 14.7 12.8442 14.88 12.9042L11.11 16.6742ZM16.55 11.2442L15.77 12.0242C15.72 12.0742 15.65 12.1042 15.58 12.1042C15.56 12.1042 15.52 12.1042 15.5 12.0942C13.78 11.6042 12.41 10.2342 11.92 8.51416C11.89 8.42416 11.92 8.32416 11.99 8.25416L12.78 7.46416C14.07 6.17416 15.29 6.20416 16.55 7.46416C17.19 8.10416 17.51 8.72416 17.5 9.36416C17.5 9.99416 17.19 10.6042 16.55 11.2442Z" fill="#5570F1"/>
</svg>
