<svg width="24" height="25" viewBox="0 0 24 25" fill="none" xmlns="http://www.w3.org/2000/svg">
    <path d="M16.19 2.01416H7.81C4.17 2.01416 2 4.18416 2 7.82416V16.1942C2 19.8442 4.17 22.0142 7.81 22.0142H16.18C19.82 22.0142 21.99 19.8442 21.99 16.2042V7.82416C22 4.18416 19.83 2.01416 16.19 2.01416ZM7.63 18.1642C7.63 18.5742 7.29 18.9142 6.88 18.9142C6.47 18.9142 6.13 18.5742 6.13 18.1642V16.0942C6.13 15.6842 6.47 15.3442 6.88 15.3442C7.29 15.3442 7.63 15.6842 7.63 16.0942V18.1642ZM12.75 18.1642C12.75 18.5742 12.41 18.9142 12 18.9142C11.59 18.9142 11.25 18.5742 11.25 18.1642V14.0142C11.25 13.6042 11.59 13.2642 12 13.2642C12.41 13.2642 12.75 13.6042 12.75 14.0142V18.1642ZM17.87 18.1642C17.87 18.5742 17.53 18.9142 17.12 18.9142C16.71 18.9142 16.37 18.5742 16.37 18.1642V11.9442C16.37 11.5342 16.71 11.1942 17.12 11.1942C17.53 11.1942 17.87 11.5342 17.87 11.9442V18.1642ZM17.87 8.78416C17.87 9.19416 17.53 9.53416 17.12 9.53416C16.71 9.53416 16.37 9.19416 16.37 8.78416V7.81416C13.82 10.4342 10.63 12.2842 7.06 13.1742C7 13.1942 6.94 13.1942 6.88 13.1942C6.54 13.1942 6.24 12.9642 6.15 12.6242C6.05 12.2242 6.29 11.8142 6.7 11.7142C10.07 10.8742 13.07 9.10416 15.45 6.60416H14.2C13.79 6.60416 13.45 6.26416 13.45 5.85416C13.45 5.44416 13.79 5.10416 14.2 5.10416H17.13C17.17 5.10416 17.2 5.12416 17.24 5.12416C17.29 5.13416 17.34 5.13416 17.39 5.15416C17.44 5.17416 17.48 5.20416 17.53 5.23416C17.56 5.25416 17.59 5.26416 17.62 5.28416C17.63 5.29416 17.63 5.30416 17.64 5.30416C17.68 5.34416 17.71 5.38416 17.74 5.42416C17.77 5.46416 17.8 5.49416 17.81 5.53416C17.83 5.57416 17.83 5.61416 17.84 5.66416C17.85 5.71416 17.87 5.76416 17.87 5.82416C17.87 5.83416 17.88 5.84416 17.88 5.85416V8.78416H17.87Z" fill="#5570F1"/>
</svg>
