<svg width="25" height="25" viewBox="0 0 25 25" fill="none" xmlns="http://www.w3.org/2000/svg">
<g id="vuesax/outline/lock">
<g id="lock">
<path id="Vector" d="M18.5 11.257C18.09 11.257 17.75 10.917 17.75 10.507V8.50696C17.75 5.35696 16.86 3.25696 12.5 3.25696C8.14 3.25696 7.25 5.35696 7.25 8.50696V10.507C7.25 10.917 6.91 11.257 6.5 11.257C6.09 11.257 5.75 10.917 5.75 10.507V8.50696C5.75 5.60696 6.45 1.75696 12.5 1.75696C18.55 1.75696 19.25 5.60696 19.25 8.50696V10.507C19.25 10.917 18.91 11.257 18.5 11.257Z" fill="#5E6366"/>
<path id="Vector_2" d="M12.5 19.757C10.71 19.757 9.25 18.297 9.25 16.507C9.25 14.717 10.71 13.257 12.5 13.257C14.29 13.257 15.75 14.717 15.75 16.507C15.75 18.297 14.29 19.757 12.5 19.757ZM12.5 14.757C11.54 14.757 10.75 15.547 10.75 16.507C10.75 17.467 11.54 18.257 12.5 18.257C13.46 18.257 14.25 17.467 14.25 16.507C14.25 15.547 13.46 14.757 12.5 14.757Z" fill="#5E6366"/>
<path id="Vector_3" d="M17.5 23.257H7.5C3.09 23.257 1.75 21.917 1.75 17.507V15.507C1.75 11.097 3.09 9.75696 7.5 9.75696H17.5C21.91 9.75696 23.25 11.097 23.25 15.507V17.507C23.25 21.917 21.91 23.257 17.5 23.257ZM7.5 11.257C3.92 11.257 3.25 11.937 3.25 15.507V17.507C3.25 21.077 3.92 21.757 7.5 21.757H17.5C21.08 21.757 21.75 21.077 21.75 17.507V15.507C21.75 11.937 21.08 11.257 17.5 11.257H7.5Z" fill="#5E6366"/>
</g>
</g>
</svg>
