<svg width="20" height="21" viewBox="0 0 20 21" fill="none" xmlns="http://www.w3.org/2000/svg">
    <path opacity="0.4" d="M14.0755 0.0141602H17.4615C18.8637 0.0141602 20 1.16001 20 2.57412V5.98869C20 7.4028 18.8637 8.54865 17.4615 8.54865H14.0755C12.6732 8.54865 11.537 7.4028 11.537 5.98869V2.57412C11.537 1.16001 12.6732 0.0141602 14.0755 0.0141602Z" fill="white"/>
    <path fill-rule="evenodd" clip-rule="evenodd" d="M2.53852 0.0141602H5.92449C7.32676 0.0141602 8.46301 1.16001 8.46301 2.57412V5.98869C8.46301 7.4028 7.32676 8.54865 5.92449 8.54865H2.53852C1.13626 8.54865 0 7.4028 0 5.98869V2.57412C0 1.16001 1.13626 0.0141602 2.53852 0.0141602ZM2.53852 11.4797H5.92449C7.32676 11.4797 8.46301 12.6255 8.46301 14.0396V17.4542C8.46301 18.8674 7.32676 20.0142 5.92449 20.0142H2.53852C1.13626 20.0142 0 18.8674 0 17.4542V14.0396C0 12.6255 1.13626 11.4797 2.53852 11.4797ZM17.4615 11.4797H14.0755C12.6732 11.4797 11.537 12.6255 11.537 14.0396V17.4542C11.537 18.8674 12.6732 20.0142 14.0755 20.0142H17.4615C18.8637 20.0142 20 18.8674 20 17.4542V14.0396C20 12.6255 18.8637 11.4797 17.4615 11.4797Z" fill="white"/>
</svg>
