<svg width="33" height="32" viewBox="0 0 33 32" fill="none" xmlns="http://www.w3.org/2000/svg">
<g id="vuesax/outline/notification">
<g id="notification">
<path id="Vector" d="M16.7767 27.3733C13.67 27.3733 10.5633 26.88 7.61665 25.8933C6.49665 25.5067 5.64332 24.72 5.26999 23.6933C4.88332 22.6667 5.01665 21.5333 5.62999 20.52L7.16332 17.9733C7.48332 17.44 7.77665 16.3733 7.77665 15.7467V11.8933C7.77665 6.93333 11.8167 2.89333 16.7767 2.89333C21.7367 2.89333 25.7767 6.93333 25.7767 11.8933V15.7467C25.7767 16.36 26.07 17.44 26.39 17.9867L27.91 20.52C28.4833 21.48 28.59 22.64 28.2033 23.6933C27.8167 24.7467 26.9767 25.5467 25.9233 25.8933C22.99 26.88 19.8833 27.3733 16.7767 27.3733ZM16.7767 4.89333C12.9233 4.89333 9.77666 8.02667 9.77666 11.8933V15.7467C9.77666 16.72 9.37666 18.16 8.88332 19L7.34999 21.5467C7.05665 22.04 6.97666 22.56 7.14999 23C7.30999 23.4533 7.70999 23.8 8.25666 23.9867C13.83 25.8533 19.7367 25.8533 25.31 23.9867C25.79 23.8267 26.1633 23.4667 26.3367 22.9867C26.51 22.5067 26.47 21.9867 26.2033 21.5467L24.67 19C24.1633 18.1333 23.7767 16.7067 23.7767 15.7333V11.8933C23.7767 8.02667 20.6433 4.89333 16.7767 4.89333Z" fill="#292D32"/>
<path id="Vector_2" d="M19.2567 5.25333C19.1633 5.25333 19.07 5.24 18.9767 5.21333C18.59 5.10667 18.2167 5.02667 17.8567 4.97333C16.7233 4.82667 15.63 4.90667 14.6033 5.21333C14.23 5.33333 13.83 5.21333 13.5767 4.93333C13.3233 4.65333 13.2433 4.25333 13.39 3.89333C13.9367 2.49333 15.27 1.57333 16.79 1.57333C18.31 1.57333 19.6433 2.48 20.19 3.89333C20.3233 4.25333 20.2567 4.65333 20.0033 4.93333C19.8033 5.14667 19.5233 5.25333 19.2567 5.25333Z" fill="#292D32"/>
<path id="Vector_3" d="M16.7766 30.4133C15.4566 30.4133 14.1766 29.88 13.2433 28.9467C12.3099 28.0133 11.7766 26.7333 11.7766 25.4133H13.7766C13.7766 26.2 14.0966 26.9733 14.6566 27.5333C15.2166 28.0933 15.9899 28.4133 16.7766 28.4133C18.4299 28.4133 19.7766 27.0667 19.7766 25.4133H21.7766C21.7766 28.1733 19.5366 30.4133 16.7766 30.4133Z" fill="#292D32"/>
</g>
</g>
</svg>
