<svg width="24" height="25" viewBox="0 0 24 25" fill="none" xmlns="http://www.w3.org/2000/svg">
    <path d="M17.53 7.78416C17.46 7.77416 17.39 7.77416 17.32 7.78416C15.77 7.73416 14.54 6.46416 14.54 4.90416C14.54 3.31416 15.83 2.01416 17.43 2.01416C19.02 2.01416 20.32 3.30416 20.32 4.90416C20.31 6.46416 19.08 7.73416 17.53 7.78416Z" fill="#5570F1"/>
    <path d="M20.79 14.7142C19.67 15.4642 18.1 15.7442 16.65 15.5542C17.03 14.7342 17.23 13.8242 17.24 12.8642C17.24 11.8642 17.02 10.9142 16.6 10.0842C18.08 9.88416 19.65 10.1642 20.78 10.9142C22.36 11.9542 22.36 13.6642 20.79 14.7142Z" fill="#5570F1"/>
    <path d="M6.44003 7.78416C6.51003 7.77416 6.58003 7.77416 6.65003 7.78416C8.20003 7.73416 9.43003 6.46416 9.43003 4.90416C9.43003 3.30416 8.14003 2.01416 6.54003 2.01416C4.95003 2.01416 3.66003 3.30416 3.66003 4.90416C3.66003 6.46416 4.89003 7.73416 6.44003 7.78416Z" fill="#5570F1"/>
    <path d="M6.55 12.8642C6.55 13.8342 6.75999 14.7542 7.14 15.5842C5.73 15.7342 4.26 15.4342 3.18 14.7242C1.6 13.6742 1.6 11.9642 3.18 10.9142C4.25 10.1942 5.75999 9.90416 7.18 10.0642C6.77 10.9042 6.55 11.8542 6.55 12.8642Z" fill="#5570F1"/>
    <path d="M12.12 15.8842C12.04 15.8742 11.95 15.8742 11.86 15.8842C10.02 15.8242 8.55005 14.3142 8.55005 12.4542C8.56005 10.5542 10.09 9.01416 12 9.01416C13.9 9.01416 15.44 10.5542 15.44 12.4542C15.43 14.3142 13.97 15.8242 12.12 15.8842Z" fill="#5570F1"/>
    <path d="M8.87005 17.9542C7.36005 18.9642 7.36005 20.6242 8.87005 21.6242C10.59 22.7742 13.41 22.7742 15.13 21.6242C16.64 20.6142 16.64 18.9542 15.13 17.9542C13.42 16.8042 10.6 16.8042 8.87005 17.9542Z" fill="#5570F1"/>
</svg>
