<svg width="25" height="25" viewBox="0 0 25 25" fill="none" xmlns="http://www.w3.org/2000/svg">
<g id="vuesax/outline/sms">
<g id="sms">
<path id="Vector" d="M17.5 21.757H7.5C3.85 21.757 1.75 19.657 1.75 16.007V9.00696C1.75 5.35696 3.85 3.25696 7.5 3.25696H17.5C21.15 3.25696 23.25 5.35696 23.25 9.00696V16.007C23.25 19.657 21.15 21.757 17.5 21.757ZM7.5 4.75696C4.64 4.75696 3.25 6.14696 3.25 9.00696V16.007C3.25 18.867 4.64 20.257 7.5 20.257H17.5C20.36 20.257 21.75 18.867 21.75 16.007V9.00696C21.75 6.14696 20.36 4.75696 17.5 4.75696H7.5Z" fill="#5E6366"/>
<path id="Vector_2" d="M12.4998 13.3769C11.6598 13.3769 10.8098 13.1169 10.1598 12.5869L7.02978 10.0869C6.70978 9.82693 6.64978 9.35693 6.90978 9.03693C7.16978 8.71693 7.63978 8.65693 7.95978 8.91693L11.0898 11.4169C11.8498 12.0269 13.1398 12.0269 13.8998 11.4169L17.0298 8.91693C17.3498 8.65693 17.8298 8.70693 18.0798 9.03693C18.3398 9.35693 18.2898 9.83693 17.9598 10.0869L14.8298 12.5869C14.1898 13.1169 13.3398 13.3769 12.4998 13.3769Z" fill="#5E6366"/>
</g>
</g>
</svg>
