<svg width="24" height="25" viewBox="0 0 24 25" fill="none" xmlns="http://www.w3.org/2000/svg">
    <path d="M7.35001 3.87416H14.09V6.89416C14.09 7.28416 14.41 7.59416 14.79 7.59416C15.17 7.59416 15.49 7.28416 15.49 6.89416V3.87416H16.65C20.6 3.87416 21.9 5.05416 21.99 8.74416C22 8.92416 21.92 9.11416 21.79 9.24416C21.66 9.38416 21.49 9.45416 21.29 9.45416C19.89 9.45416 18.74 10.6142 18.74 12.0142C18.74 13.4142 19.89 14.5742 21.29 14.5742C21.48 14.5742 21.66 14.6442 21.79 14.7842C21.92 14.9142 22 15.1042 21.99 15.2842C21.9 18.9742 20.6 20.1542 16.65 20.1542H15.49V17.1342C15.49 16.7442 15.17 16.4342 14.79 16.4342C14.41 16.4342 14.09 16.7442 14.09 17.1342V20.1542H7.35001C3.25001 20.1542 2 18.9042 2 14.8042V9.22416C2 5.12416 3.25001 3.87416 7.35001 3.87416ZM5.53 11.9142L6.46 12.8142C6.5 12.8442 6.51 12.9042 6.5 12.9542L6.28001 14.2242C6.24001 14.4542 6.33001 14.6942 6.53001 14.8342C6.72001 14.9742 6.97001 14.9942 7.18001 14.8842L8.33 14.2842C8.37 14.2642 8.43001 14.2642 8.47001 14.2842L9.62 14.8842C9.71 14.9342 9.81 14.9542 9.91 14.9542C10.04 14.9542 10.16 14.9142 10.27 14.8342C10.46 14.6942 10.56 14.4642 10.52 14.2242L10.3 12.9542C10.29 12.9042 10.31 12.8542 10.34 12.8142L11.27 11.9142C11.44 11.7542 11.5 11.5042 11.43 11.2842C11.36 11.0542 11.17 10.8942 10.93 10.8642L9.65 10.6742C9.6 10.6642 9.56 10.6342 9.53 10.5942L8.96 9.43416C8.85001 9.22416 8.64 9.09416 8.4 9.09416C8.16 9.09416 7.95001 9.22416 7.85001 9.43416L7.28001 10.5942C7.26 10.6442 7.22001 10.6742 7.17 10.6742L5.89 10.8642C5.65 10.8942 5.46 11.0642 5.39 11.2842C5.3 11.5042 5.36 11.7442 5.53 11.9142Z" fill="#5570F1"/>
</svg>
